# xmcd
#
# Track frame offsets:
#	150
#	15895
#	29655
#	41695
#	52820
#	64820
#	83382
#	100122
#	116695
#	135120
#	158207
#	176737
#
# Disc length: 2539
#
# Revision: 2
# Processed by: cddbd v1.5.1PL0 Copyright (c) Steve Scherf et al.
# Submitted via: audiograbber 1.82.02
# Normalized: r1:DSETVAR1,TSWAP
#
DISCID=8809e90c
DTITLE=Various Artist - Country Original Artists - Original Hits CD 1
DYEAR=1900
DGENRE=Country
TTITLE0=George Jones - I Don't Need Your Rockin' Chair
TTITLE1=Patsy Cline - She's Got You
TTITLE2=Elvira - Oak Ridge Boys
TTITLE3=Conway Twitty - Hello Darlin'
TTITLE4=After The Fire Is Gone - Conway Twitty and Lorretta Lynn
TTITLE5=Tracy Byrd - The Keeper Of The Stars
TTITLE6=Mark Chestnutt - Gotta Get A Life
TTITLE7=Never Mind - Nanci Griffith
TTITLE8=Vince Gill - When Love Finds You
TTITLE9=The Mavericks - Should Have Been True
TTITLE10=Don Williams - I Believe In You
TTITLE11=Marty Stuart - Hey Baby
EXTD=
EXTT0=
EXTT1=
EXTT2=
EXTT3=
EXTT4=
EXTT5=
EXTT6=
EXTT7=
EXTT8=
EXTT9=
EXTT10=
EXTT11=
PLAYORDER=
